<svg class="animated" id="freepik_stories-hand-holding-pen" xmlns="http://www.w3.org/2000/svg" viewBox="0 0 500 500" version="1.1" xmlns:xlink="http://www.w3.org/1999/xlink" xmlns:svgjs="http://svgjs.com/svgjs"><style>svg#freepik_stories-hand-holding-pen:not(.animated) .animable {opacity: 0;}svg#freepik_stories-hand-holding-pen.animated #freepik--speech-bubble--inject-46 {animation: 3s Infinite  linear floating;animation-delay: 0s;}svg#freepik_stories-hand-holding-pen.animated #freepik--Character--inject-46 {animation: 3s Infinite  linear shake;animation-delay: 0s;}            @keyframes floating {                0% {                    opacity: 1;                    transform: translateY(0px);                }                50% {                    transform: translateY(-10px);                }                100% {                    opacity: 1;                    transform: translateY(0px);                }            }                    @keyframes shake {                10%, 90% {                    transform: translate3d(-1px, 0, 0);                  }                  20%, 80% {                    transform: translate3d(2px, 0, 0);                  }                  30%, 50%, 70% {                    transform: translate3d(-4px, 0, 0);                  }                  40%, 60% {                    transform: translate3d(4px, 0, 0);                  }            }        </style><g id="freepik--background-complete--inject-46" class="animable" style="transform-origin: 250px 228.23px;"><rect y="382.4" width="500" height="0.25" style="fill: rgb(235, 235, 235); transform-origin: 250px 382.525px;" id="elds1xt8ec2yh" class="animable"></rect><rect x="416.78" y="398.49" width="33.12" height="0.25" style="fill: rgb(235, 235, 235); transform-origin: 433.34px 398.615px;" id="elctpmslakoaq" class="animable"></rect><rect x="322.53" y="401.21" width="8.69" height="0.25" style="fill: rgb(235, 235, 235); transform-origin: 326.875px 401.335px;" id="elnm5f0fcmtqk" class="animable"></rect><rect x="396.59" y="389.21" width="19.19" height="0.25" style="fill: rgb(235, 235, 235); transform-origin: 406.185px 389.335px;" id="elrzrgisp928" class="animable"></rect><rect x="52.46" y="390.89" width="43.19" height="0.25" style="fill: rgb(235, 235, 235); transform-origin: 74.055px 391.015px;" id="elka8lzzap83" class="animable"></rect><rect x="104.56" y="390.89" width="6.33" height="0.25" style="fill: rgb(235, 235, 235); transform-origin: 107.725px 391.015px;" id="elz43ipcedz1" class="animable"></rect><rect x="131.47" y="395.11" width="93.68" height="0.25" style="fill: rgb(235, 235, 235); transform-origin: 178.31px 395.235px;" id="elar0exoar2wb" class="animable"></rect><path d="M237,337.8H43.91a5.71,5.71,0,0,1-5.7-5.71V60.66A5.71,5.71,0,0,1,43.91,55H237a5.71,5.71,0,0,1,5.71,5.71V332.09A5.71,5.71,0,0,1,237,337.8ZM43.91,55.2a5.46,5.46,0,0,0-5.45,5.46V332.09a5.46,5.46,0,0,0,5.45,5.46H237a5.47,5.47,0,0,0,5.46-5.46V60.66A5.47,5.47,0,0,0,237,55.2Z" style="fill: rgb(235, 235, 235); transform-origin: 140.46px 196.4px;" id="elk4sjhv6dcc" class="animable"></path><path d="M453.31,337.8H260.21a5.72,5.72,0,0,1-5.71-5.71V60.66A5.72,5.72,0,0,1,260.21,55h193.1A5.71,5.71,0,0,1,459,60.66V332.09A5.71,5.71,0,0,1,453.31,337.8ZM260.21,55.2a5.47,5.47,0,0,0-5.46,5.46V332.09a5.47,5.47,0,0,0,5.46,5.46h193.1a5.47,5.47,0,0,0,5.46-5.46V60.66a5.47,5.47,0,0,0-5.46-5.46Z" style="fill: rgb(235, 235, 235); transform-origin: 356.75px 196.4px;" id="elz0jct65ccu8" class="animable"></path><rect x="101.58" y="168.76" width="146.22" height="214.37" style="fill: rgb(240, 240, 240); transform-origin: 174.69px 275.945px;" id="elldkyi9palh" class="animable"></rect><rect x="106.75" y="175.51" width="135.88" height="39.59" style="fill: rgb(224, 224, 224); transform-origin: 174.69px 195.305px;" id="elgblex4uxcu" class="animable"></rect><rect x="106.75" y="181.92" width="7.72" height="33.18" style="fill: rgb(235, 235, 235); transform-origin: 110.61px 198.51px;" id="elsmzuo0ebhz" class="animable"></rect><rect x="144.08" y="181.92" width="7.72" height="33.18" style="fill: rgb(235, 235, 235); transform-origin: 147.94px 198.51px;" id="elf6eza02xv0i" class="animable"></rect><g id="elgs8dlbeo6fs"><rect x="189.32" y="181.5" width="7.72" height="33.18" style="fill: rgb(235, 235, 235); transform-origin: 193.18px 198.09px; transform: rotate(-9.78deg);" class="animable"></rect></g><rect x="116.32" y="186.29" width="7.72" height="28.81" style="fill: rgb(235, 235, 235); transform-origin: 120.18px 200.695px;" id="elcvo67tnbve" class="animable"></rect><rect x="134.06" y="186.29" width="7.72" height="28.81" style="fill: rgb(235, 235, 235); transform-origin: 137.92px 200.695px;" id="elihxqk0tjezi" class="animable"></rect><rect x="178.84" y="186.29" width="7.72" height="28.81" style="fill: rgb(235, 235, 235); transform-origin: 182.7px 200.695px;" id="el6mh7dsa85ih" class="animable"></rect><g id="eljtapo7tcnig"><rect x="157.43" y="185.8" width="7.72" height="28.81" style="fill: rgb(235, 235, 235); transform-origin: 161.29px 200.205px; transform: rotate(-12.53deg);" class="animable"></rect></g><rect x="126.85" y="180.27" width="3.86" height="34.83" style="fill: rgb(235, 235, 235); transform-origin: 128.78px 197.685px;" id="elze0ciwk6ek" class="animable"></rect><rect x="172.76" y="180.27" width="3.86" height="34.83" style="fill: rgb(235, 235, 235); transform-origin: 174.69px 197.685px;" id="elweqbk2hsei" class="animable"></rect><g id="elsqokzlxeldb"><rect x="106.75" y="221.37" width="135.88" height="39.59" style="fill: rgb(224, 224, 224); transform-origin: 174.69px 241.165px; transform: rotate(180deg);" class="animable"></rect></g><g id="elbbmzcooa1yr"><rect x="234.91" y="227.78" width="7.72" height="33.18" style="fill: rgb(235, 235, 235); transform-origin: 238.77px 244.37px; transform: rotate(180deg);" class="animable"></rect></g><g id="elgyt1m149gd"><rect x="197.59" y="227.78" width="7.72" height="33.18" style="fill: rgb(235, 235, 235); transform-origin: 201.45px 244.37px; transform: rotate(180deg);" class="animable"></rect></g><g id="el9az8bwim3v4"><rect x="152.34" y="227.37" width="7.72" height="33.18" style="fill: rgb(235, 235, 235); transform-origin: 156.2px 243.96px; transform: rotate(-170.22deg);" class="animable"></rect></g><g id="elhqlgwowbw7"><rect x="225.35" y="232.15" width="7.72" height="28.81" style="fill: rgb(235, 235, 235); transform-origin: 229.21px 246.555px; transform: rotate(180deg);" class="animable"></rect></g><g id="eljb9bmdeopph"><rect x="207.61" y="232.15" width="7.72" height="28.81" style="fill: rgb(235, 235, 235); transform-origin: 211.47px 246.555px; transform: rotate(180deg);" class="animable"></rect></g><g id="eli8hgp1qbc0g"><rect x="162.82" y="232.15" width="7.72" height="28.81" style="fill: rgb(235, 235, 235); transform-origin: 166.68px 246.555px; transform: rotate(180deg);" class="animable"></rect></g><g id="elgronx8vpde4"><rect x="184.23" y="231.66" width="7.72" height="28.81" style="fill: rgb(235, 235, 235); transform-origin: 188.09px 246.065px; transform: rotate(-167.47deg);" class="animable"></rect></g><g id="el8agtu64k2ls"><rect x="218.67" y="226.13" width="3.86" height="34.83" style="fill: rgb(235, 235, 235); transform-origin: 220.6px 243.545px; transform: rotate(180deg);" class="animable"></rect></g><g id="el1ywdw01w6is"><rect x="172.76" y="226.13" width="3.86" height="34.83" style="fill: rgb(235, 235, 235); transform-origin: 174.69px 243.545px; transform: rotate(180deg);" class="animable"></rect></g><rect x="106.75" y="227.78" width="7.72" height="33.18" style="fill: rgb(235, 235, 235); transform-origin: 110.61px 244.37px;" id="el99xvtmbpg4" class="animable"></rect><rect x="116.32" y="232.15" width="7.72" height="28.81" style="fill: rgb(235, 235, 235); transform-origin: 120.18px 246.555px;" id="el9xicl7xiar" class="animable"></rect><rect x="134.06" y="232.15" width="7.72" height="28.81" style="fill: rgb(235, 235, 235); transform-origin: 137.92px 246.555px;" id="eladm2dr74lcs" class="animable"></rect><rect x="126.85" y="226.13" width="3.86" height="34.83" style="fill: rgb(235, 235, 235); transform-origin: 128.78px 243.545px;" id="el21ikv15shwt" class="animable"></rect><rect x="106.75" y="267.23" width="135.88" height="39.59" style="fill: rgb(224, 224, 224); transform-origin: 174.69px 287.025px;" id="elhw31bjcazqt" class="animable"></rect><rect x="184.74" y="273.64" width="7.72" height="33.18" style="fill: rgb(235, 235, 235); transform-origin: 188.6px 290.23px;" id="eln3og984ftrr" class="animable"></rect><g id="eltm4w0bba1yg"><rect x="229.99" y="273.23" width="7.72" height="33.18" style="fill: rgb(235, 235, 235); transform-origin: 233.85px 289.82px; transform: rotate(-9.78deg);" class="animable"></rect></g><rect x="156.98" y="278.01" width="7.72" height="28.81" style="fill: rgb(235, 235, 235); transform-origin: 160.84px 292.415px;" id="el7kg9wioa9i4" class="animable"></rect><rect x="174.73" y="278.01" width="7.72" height="28.81" style="fill: rgb(235, 235, 235); transform-origin: 178.59px 292.415px;" id="elohxxtgddncs" class="animable"></rect><rect x="219.51" y="278.01" width="7.72" height="28.81" style="fill: rgb(235, 235, 235); transform-origin: 223.37px 292.415px;" id="eltn9w4fh7uk" class="animable"></rect><g id="elgvnpkfp1x9o"><rect x="198.1" y="277.52" width="7.72" height="28.81" style="fill: rgb(235, 235, 235); transform-origin: 201.96px 291.925px; transform: rotate(-12.53deg);" class="animable"></rect></g><rect x="167.52" y="271.99" width="3.86" height="34.83" style="fill: rgb(235, 235, 235); transform-origin: 169.45px 289.405px;" id="eljf7u6vty1tg" class="animable"></rect><rect x="213.43" y="271.99" width="3.86" height="34.83" style="fill: rgb(235, 235, 235); transform-origin: 215.36px 289.405px;" id="el6y9c5wi3i74" class="animable"></rect><g id="elppue55vieac"><rect x="141.18" y="273.23" width="7.72" height="33.18" style="fill: rgb(235, 235, 235); transform-origin: 145.04px 289.82px; transform: rotate(-9.78deg);" class="animable"></rect></g><rect x="130.7" y="278.01" width="7.72" height="28.81" style="fill: rgb(235, 235, 235); transform-origin: 134.56px 292.415px;" id="eljlq0dumes5" class="animable"></rect><g id="el8fj8w1qqrww"><rect x="109.29" y="277.52" width="7.72" height="28.81" style="fill: rgb(235, 235, 235); transform-origin: 113.15px 291.925px; transform: rotate(-12.53deg);" class="animable"></rect></g><rect x="124.63" y="271.99" width="3.86" height="34.83" style="fill: rgb(235, 235, 235); transform-origin: 126.56px 289.405px;" id="elcq0uw1en45e" class="animable"></rect><g id="elqynf018eje"><rect x="76.36" y="168.76" width="25.23" height="214.94" style="fill: rgb(224, 224, 224); transform-origin: 88.975px 276.23px; transform: rotate(180deg);" class="animable"></rect></g><rect x="309.15" y="113.96" width="91.95" height="207.14" style="fill: rgb(235, 235, 235); transform-origin: 355.125px 217.53px;" id="eltipuugnpo88" class="animable"></rect><g id="eltd1x2nk6qq"><rect x="256.61" y="174.41" width="199.37" height="85.01" style="fill: rgb(250, 250, 250); transform-origin: 356.295px 216.915px; transform: rotate(90deg);" class="animable"></rect></g><rect x="354.14" y="116.85" width="1.95" height="202.31" style="fill: rgb(245, 245, 245); transform-origin: 355.115px 218.005px;" id="el90hbjyby1e" class="animable"></rect><rect x="307.02" y="111.27" width="96.19" height="9.75" style="fill: rgb(224, 224, 224); transform-origin: 355.115px 116.145px;" id="elzqci6dds7jr" class="animable"></rect><rect x="307.02" y="122.09" width="96.19" height="1.16" style="fill: rgb(245, 245, 245); transform-origin: 355.115px 122.67px;" id="elw831edt7uoq" class="animable"></rect><rect x="307.02" y="124.72" width="96.19" height="1.16" style="fill: rgb(245, 245, 245); transform-origin: 355.115px 125.3px;" id="elf7jk1w4bf4" class="animable"></rect><rect x="307.02" y="127.34" width="96.19" height="1.16" style="fill: rgb(245, 245, 245); transform-origin: 355.115px 127.92px;" id="els0tka7ri8zp" class="animable"></rect><rect x="307.02" y="129.96" width="96.19" height="1.16" style="fill: rgb(245, 245, 245); transform-origin: 355.115px 130.54px;" id="eltr3uk88t6nk" class="animable"></rect><rect x="307.02" y="132.58" width="96.19" height="1.16" style="fill: rgb(245, 245, 245); transform-origin: 355.115px 133.16px;" id="elyvo3tzkf1g" class="animable"></rect><rect x="307.02" y="135.21" width="96.19" height="1.16" style="fill: rgb(245, 245, 245); transform-origin: 355.115px 135.79px;" id="elgmzkmq3knp7" class="animable"></rect><rect x="307.02" y="137.83" width="96.19" height="1.16" style="fill: rgb(245, 245, 245); transform-origin: 355.115px 138.41px;" id="el5xogvbo4ppv" class="animable"></rect><rect x="307.02" y="140.45" width="96.19" height="1.16" style="fill: rgb(245, 245, 245); transform-origin: 355.115px 141.03px;" id="el5ejp2j89y8q" class="animable"></rect><rect x="307.02" y="143.07" width="96.19" height="1.16" style="fill: rgb(245, 245, 245); transform-origin: 355.115px 143.65px;" id="elmhb1whdwsa" class="animable"></rect><rect x="307.02" y="145.7" width="96.19" height="1.16" style="fill: rgb(245, 245, 245); transform-origin: 355.115px 146.28px;" id="el7snxyu3r7cv" class="animable"></rect><rect x="307.02" y="148.32" width="96.19" height="1.16" style="fill: rgb(245, 245, 245); transform-origin: 355.115px 148.9px;" id="eln557n2od9ve" class="animable"></rect><rect x="307.02" y="150.94" width="96.19" height="1.16" style="fill: rgb(245, 245, 245); transform-origin: 355.115px 151.52px;" id="elal357r8n14" class="animable"></rect><rect x="307.02" y="153.56" width="96.19" height="1.16" style="fill: rgb(245, 245, 245); transform-origin: 355.115px 154.14px;" id="elwjz6pw18e8i" class="animable"></rect><rect x="307.02" y="156.18" width="96.19" height="1.16" style="fill: rgb(245, 245, 245); transform-origin: 355.115px 156.76px;" id="elnnzcyxc9nr" class="animable"></rect><rect x="307.02" y="158.81" width="96.19" height="1.16" style="fill: rgb(245, 245, 245); transform-origin: 355.115px 159.39px;" id="elw11xdvm0ue" class="animable"></rect><rect x="307.02" y="161.43" width="96.19" height="1.16" style="fill: rgb(245, 245, 245); transform-origin: 355.115px 162.01px;" id="ely7ylc49ljj" class="animable"></rect><rect x="307.02" y="164.05" width="96.19" height="1.16" style="fill: rgb(245, 245, 245); transform-origin: 355.115px 164.63px;" id="el9im72saii1u" class="animable"></rect><rect x="307.02" y="166.67" width="96.19" height="1.16" style="fill: rgb(245, 245, 245); transform-origin: 355.115px 167.25px;" id="el807qsqxn4ef" class="animable"></rect><circle cx="207.47" cy="114.04" r="16.3" style="fill: rgb(224, 224, 224); transform-origin: 207.47px 114.04px;" id="elkaa9v1sh5x" class="animable"></circle><circle cx="207.47" cy="114.04" r="13.86" style="fill: rgb(240, 240, 240); transform-origin: 207.47px 114.04px;" id="el34labrior9" class="animable"></circle><polyline points="208.12 104.53 208.12 114.22 214.54 110.59" style="fill: rgb(240, 240, 240); transform-origin: 211.33px 109.375px;" id="elczwcplop2u8" class="animable"></polyline><path d="M208.12,115.23a1,1,0,0,1-1-1v-9.7a1,1,0,1,1,2,0v8l4.93-2.79a1,1,0,0,1,1.36.38,1,1,0,0,1-.37,1.36l-6.43,3.64A1.05,1.05,0,0,1,208.12,115.23Z" style="fill: rgb(224, 224, 224); transform-origin: 211.33px 109.38px;" id="elxop7kg58ium" class="animable"></path></g><g id="freepik--Shadow--inject-46" class="animable" style="transform-origin: 250px 416.24px;"><ellipse id="freepik--path--inject-46" cx="250" cy="416.24" rx="193.89" ry="11.32" style="fill: rgb(245, 245, 245); transform-origin: 250px 416.24px;" class="animable"></ellipse></g><g id="freepik--speech-bubble--inject-46" class="animable" style="transform-origin: 305.76px 170.065px;"><path d="M281,207.62s-1.18,8.19-11.8,12.26c0,0,5.9-6.13,5.69-12Z" style="fill: rgb(0, 255, 136); transform-origin: 275.1px 213.75px;" id="elsew6vztl7bq" class="animable"></path><g id="elsu6xxr8ahn"><path d="M281,207.62s-1.18,8.19-11.8,12.26c0,0,5.9-6.13,5.69-12Z" style="fill: rgb(255, 255, 255); opacity: 0.7; transform-origin: 275.1px 213.75px;" class="animable"></path></g><ellipse cx="305.76" cy="175.72" rx="55.88" ry="38.03" style="fill: rgb(0, 255, 136); transform-origin: 305.76px 175.72px;" id="elivfdfsk8bs" class="animable"></ellipse><g id="elggxicorf4vg"><ellipse cx="305.76" cy="175.72" rx="55.88" ry="38.03" style="fill: rgb(255, 255, 255); opacity: 0.7; transform-origin: 305.76px 175.72px;" class="animable"></ellipse></g><path d="M292,124.62v70.9a7,7,0,0,0,7,7h32.6a7.33,7.33,0,0,0,3.81-1.08,7,7,0,0,1-3.3-5.94v-70.9Z" style="fill: rgb(0, 255, 136); transform-origin: 313.705px 163.56px;" id="el9jmi0vu43ir" class="animable"></path><g id="elatj1hb63lk"><path d="M292,124.62v70.9a7,7,0,0,0,7,7h32.6a7.33,7.33,0,0,0,3.81-1.08,7,7,0,0,1-3.3-5.94v-70.9Z" style="fill: rgb(255, 255, 255); opacity: 0.4; transform-origin: 313.705px 163.56px;" class="animable"></path></g><rect x="303.3" y="130.64" width="23.36" height="1.19" style="fill: rgb(0, 255, 136); transform-origin: 314.98px 131.235px;" id="elrto2bq2jta" class="animable"></rect><rect x="297.61" y="133.83" width="29.05" height="1.19" style="fill: rgb(0, 255, 136); transform-origin: 312.135px 134.425px;" id="elh2vkyyw6iko" class="animable"></rect><rect x="297.61" y="137.01" width="29.05" height="1.19" style="fill: rgb(0, 255, 136); transform-origin: 312.135px 137.605px;" id="eld00qw7s5soh" class="animable"></rect><rect x="297.61" y="140.2" width="29.05" height="1.19" style="fill: rgb(0, 255, 136); transform-origin: 312.135px 140.795px;" id="el2964hn7wy01" class="animable"></rect><rect x="297.61" y="143.39" width="29.05" height="1.19" style="fill: rgb(0, 255, 136); transform-origin: 312.135px 143.985px;" id="elvm9zdxpu36" class="animable"></rect><rect x="297.61" y="146.58" width="15.83" height="1.19" style="fill: rgb(0, 255, 136); transform-origin: 305.525px 147.175px;" id="ellmm80btq7m" class="animable"></rect><rect x="303.3" y="171.2" width="23.36" height="1.19" style="fill: rgb(0, 255, 136); transform-origin: 314.98px 171.795px;" id="el1t1w6ixoh07" class="animable"></rect><rect x="297.61" y="174.39" width="29.05" height="1.19" style="fill: rgb(0, 255, 136); transform-origin: 312.135px 174.985px;" id="elrexhw5aiwqf" class="animable"></rect><rect x="297.61" y="177.57" width="29.05" height="1.19" style="fill: rgb(0, 255, 136); transform-origin: 312.135px 178.165px;" id="eloov2jwd4igd" class="animable"></rect><rect x="297.61" y="180.76" width="29.05" height="1.19" style="fill: rgb(0, 255, 136); transform-origin: 312.135px 181.355px;" id="el4z8nv19dtjm" class="animable"></rect><rect x="297.61" y="183.95" width="29.05" height="1.19" style="fill: rgb(0, 255, 136); transform-origin: 312.135px 184.545px;" id="elwbzgb811nr" class="animable"></rect><rect x="297.61" y="187.14" width="24.73" height="1.19" style="fill: rgb(0, 255, 136); transform-origin: 309.975px 187.735px;" id="el259aacy279a" class="animable"></rect><rect x="303.3" y="152.95" width="23.36" height="1.19" style="fill: rgb(0, 255, 136); transform-origin: 314.98px 153.545px;" id="el7rtke9clt6g" class="animable"></rect><rect x="297.61" y="156.14" width="29.05" height="1.19" style="fill: rgb(0, 255, 136); transform-origin: 312.135px 156.735px;" id="elyuxtxysl2gr" class="animable"></rect><rect x="297.61" y="159.33" width="29.05" height="1.19" style="fill: rgb(0, 255, 136); transform-origin: 312.135px 159.925px;" id="el16t64tjlt77j" class="animable"></rect><rect x="297.61" y="162.51" width="29.05" height="1.19" style="fill: rgb(0, 255, 136); transform-origin: 312.135px 163.105px;" id="elwz5aax5jgt" class="animable"></rect><rect x="297.61" y="165.26" width="15.83" height="1.19" style="fill: rgb(0, 255, 136); transform-origin: 305.525px 165.855px;" id="elgofq6wg1mxh" class="animable"></rect><polygon points="282.36 130.19 278.58 121.58 278.61 121.57 278.04 120.25 277.99 120.27 276.45 120.92 276.45 120.92 272.04 122.78 272.62 124.09 277.03 122.23 280.81 130.85 282.36 130.19" style="fill: rgb(38, 50, 56); transform-origin: 277.2px 125.55px;" id="elw25dyambexk" class="animable"></polygon><g id="el2i8ste9a7g6"><polygon points="282.36 130.19 278.58 121.58 278.61 121.57 278.04 120.25 277.99 120.27 276.45 120.92 276.45 120.92 272.04 122.78 272.62 124.09 277.03 122.23 280.81 130.85 282.36 130.19" style="fill: rgb(255, 255, 255); opacity: 0.5; transform-origin: 277.2px 125.55px;" class="animable"></polygon></g><path d="M280.52,154.11q-11-13.63-12.93-29.44l6-2.52a68.24,68.24,0,0,1,12.93,29.44Z" style="fill: rgb(38, 50, 56); transform-origin: 277.055px 138.13px;" id="el17g9b68hvdw" class="animable"></path><polygon points="292.76 182 299.47 189.18 298.76 179.48 292.76 182" style="fill: rgb(38, 50, 56); transform-origin: 296.115px 184.33px;" id="el6jkfz9wl92e" class="animable"></polygon><g id="elr0d3wtxwmq"><polygon points="292.76 182 297.41 186.98 299.47 189.18 298.76 179.48 292.76 182" style="fill: rgb(255, 255, 255); opacity: 0.3; transform-origin: 296.115px 184.33px;" class="animable"></polygon></g><polygon points="297.53 187.11 298.87 188.54 299.47 189.18 299.26 186.38 297.53 187.11" style="fill: rgb(38, 50, 56); transform-origin: 298.5px 187.78px;" id="elhr83vxc7i9b" class="animable"></polygon><polygon points="292.76 182 280.52 154.11 286.51 151.59 298.76 179.48 292.76 182" style="fill: rgb(38, 50, 56); transform-origin: 289.64px 166.795px;" id="elcci6bsz8az8" class="animable"></polygon><g id="elfu39ag4g9gj"><polygon points="292.76 182 280.52 154.11 286.51 151.59 298.76 179.48 292.76 182" style="fill: rgb(255, 255, 255); opacity: 0.1; transform-origin: 289.64px 166.795px;" class="animable"></polygon></g><path d="M267.59,124.67l6-2.52s-.57-2.12-3.69-.92S267.59,124.67,267.59,124.67Z" style="fill: rgb(38, 50, 56); transform-origin: 270.543px 122.766px;" id="elbo0vlrm9i5t" class="animable"></path><g id="eloakmhzdshes"><path d="M267.59,124.67l6-2.52s-.57-2.12-3.69-.92S267.59,124.67,267.59,124.67Z" style="fill: rgb(255, 255, 255); opacity: 0.1; transform-origin: 270.543px 122.766px;" class="animable"></path></g></g><g id="freepik--Books--inject-46" class="animable" style="transform-origin: 377.39px 377.89px;"><path d="M333.18,386h76.37V402h-76.4A62.45,62.45,0,0,0,333.18,386Z" style="fill: rgb(0, 255, 136); transform-origin: 371.35px 394px;" id="elm3etyc3dvnl" class="animable"></path><g id="elhayb8vr3ec5"><path d="M333.18,386h76.37V402h-76.4A62.45,62.45,0,0,0,333.18,386Z" style="fill: rgb(255, 255, 255); opacity: 0.7; transform-origin: 371.35px 394px;" class="animable"></path></g><path d="M397.06,401.37a10.57,10.57,0,0,0,0-14.94L395.63,385h24l.25.24a12.25,12.25,0,0,1,0,17.31l-.25.25h-24Z" style="fill: rgb(0, 255, 136); transform-origin: 409.545px 393.9px;" id="elqtjw8tj3ywo" class="animable"></path><g id="el8ce5aiio58p"><g style="opacity: 0.3; transform-origin: 409.545px 393.9px;" class="animable"><path d="M397.06,401.37a10.57,10.57,0,0,0,0-14.94L395.63,385h24l.25.24a12.25,12.25,0,0,1,0,17.31l-.25.25h-24Z" id="eld1dooc7wi5g" class="animable" style="transform-origin: 409.545px 393.9px;"></path></g></g><path d="M332.4,402.8h64.82l.07-.07a12.57,12.57,0,0,0,3.75-8.4,12.18,12.18,0,0,0-3.57-9.09l-.25-.24H332.4a.83.83,0,0,0-.84.83h0a.83.83,0,0,0,.84.84h64.12a10.56,10.56,0,0,1,0,14.45H332.4a.84.84,0,0,0-.84.84h0A.84.84,0,0,0,332.4,402.8Z" style="fill: rgb(0, 255, 136); transform-origin: 366.304px 393.9px;" id="el6p0p5td2eie" class="animable"></path><path d="M339.17,392h3.67a.63.63,0,0,0,.63-.63h0a.63.63,0,0,0-.63-.63h-3.67a.63.63,0,0,0-.63.63h0A.63.63,0,0,0,339.17,392Z" style="fill: rgb(255, 255, 255); transform-origin: 341.005px 391.37px;" id="els9obb6ctup7" class="animable"></path><path d="M347.66,392h34a.63.63,0,0,0,.63-.63h0a.63.63,0,0,0-.63-.63h-34a.63.63,0,0,0-.63.63h0A.63.63,0,0,0,347.66,392Z" style="fill: rgb(255, 255, 255); transform-origin: 364.66px 391.37px;" id="elq4yiat5b4eg" class="animable"></path><path d="M386.32,392h7.54a.63.63,0,0,0,.63-.63h0a.63.63,0,0,0-.63-.63h-7.54a.63.63,0,0,0-.63.63h0A.63.63,0,0,0,386.32,392Z" style="fill: rgb(255, 255, 255); transform-origin: 390.09px 391.37px;" id="elmomhg3e79h" class="animable"></path><path d="M339.17,397.28h32.27a.63.63,0,0,0,.63-.63h0a.63.63,0,0,0-.63-.63H339.17a.63.63,0,0,0-.63.63h0A.63.63,0,0,0,339.17,397.28Z" style="fill: rgb(255, 255, 255); transform-origin: 355.305px 396.65px;" id="elsz2bg01y0l" class="animable"></path><path d="M376.16,397.28h17.7a.63.63,0,0,0,.63-.63h0a.63.63,0,0,0-.63-.63h-17.7a.63.63,0,0,0-.63.63h0A.63.63,0,0,0,376.16,397.28Z" style="fill: rgb(255, 255, 255); transform-origin: 385.01px 396.65px;" id="el4nr92r1ed8h" class="animable"></path><path d="M335.2,353.89h68.73v14.33H335.18A55.88,55.88,0,0,0,335.2,353.89Z" style="fill: rgb(0, 255, 136); transform-origin: 369.555px 361.055px;" id="el4jtr157ppox" class="animable"></path><g id="els5liymzfut"><path d="M335.2,353.89h68.73v14.33H335.18A55.88,55.88,0,0,0,335.2,353.89Z" style="fill: rgb(255, 255, 255); opacity: 0.8; transform-origin: 369.555px 361.055px;" class="animable"></path></g><path d="M392.7,367.69a9.52,9.52,0,0,0,0-13.45L391.41,353H413l.22.22a11,11,0,0,1,0,15.58L413,369h-21.6Z" style="fill: rgb(0, 255, 136); transform-origin: 403.927px 361px;" id="elah9p6xshukq" class="animable"></path><g id="elynsvu7t1jpn"><g style="opacity: 0.2; transform-origin: 403.927px 361px;" class="animable"><path d="M392.7,367.69a9.52,9.52,0,0,0,0-13.45L391.41,353H413l.22.22a11,11,0,0,1,0,15.58L413,369h-21.6Z" style="fill: rgb(255, 255, 255); transform-origin: 403.927px 361px;" id="elgrm19xv8rpd" class="animable"></path></g></g><path d="M334.5,369h58.34l.06-.06a11.28,11.28,0,0,0,3.38-7.55,10.94,10.94,0,0,0-3.22-8.19l-.22-.22H334.5a.76.76,0,0,0-.76.76h0a.76.76,0,0,0,.76.75h57.71a9.52,9.52,0,0,1,0,13H334.5a.75.75,0,0,0-.76.75h0A.75.75,0,0,0,334.5,369Z" style="fill: rgb(0, 255, 136); transform-origin: 365.014px 360.99px;" id="elv1d2ydy5bmb" class="animable"></path><g id="elhxookz59g8b"><g style="opacity: 0.4; transform-origin: 365.014px 360.99px;" class="animable"><path d="M334.5,369h58.34l.06-.06a11.28,11.28,0,0,0,3.38-7.55,10.94,10.94,0,0,0-3.22-8.19l-.22-.22H334.5a.76.76,0,0,0-.76.76h0a.76.76,0,0,0,.76.75h57.71a9.52,9.52,0,0,1,0,13H334.5a.75.75,0,0,0-.76.75h0A.75.75,0,0,0,334.5,369Z" style="fill: rgb(255, 255, 255); transform-origin: 365.014px 360.99px;" id="elubs7zdj3o1" class="animable"></path></g></g><path d="M340.6,359.23h3.3a.56.56,0,0,0,.56-.56h0a.56.56,0,0,0-.56-.57h-3.3a.57.57,0,0,0-.57.57h0A.57.57,0,0,0,340.6,359.23Z" style="fill: rgb(255, 255, 255); transform-origin: 342.245px 358.665px;" id="elp6e7q2pdx5" class="animable"></path><path d="M348.24,359.23h30.64a.57.57,0,0,0,.57-.56h0a.57.57,0,0,0-.57-.57H348.24a.56.56,0,0,0-.57.57h0A.56.56,0,0,0,348.24,359.23Z" style="fill: rgb(255, 255, 255); transform-origin: 363.56px 358.665px;" id="el4wy93yhq9ur" class="animable"></path><path d="M383,359.23h6.79a.56.56,0,0,0,.56-.56h0a.56.56,0,0,0-.56-.57H383a.57.57,0,0,0-.57.57h0A.57.57,0,0,0,383,359.23Z" style="fill: rgb(255, 255, 255); transform-origin: 386.39px 358.665px;" id="elo2ghde4q2zc" class="animable"></path><path d="M340.6,364h29a.57.57,0,0,0,.57-.57h0a.57.57,0,0,0-.57-.56h-29a.57.57,0,0,0-.57.56h0A.57.57,0,0,0,340.6,364Z" style="fill: rgb(255, 255, 255); transform-origin: 355.1px 363.435px;" id="elj5ka5m0mea" class="animable"></path><path d="M373.88,364h15.94a.56.56,0,0,0,.56-.57h0a.56.56,0,0,0-.56-.56H373.88a.56.56,0,0,0-.56.56h0A.56.56,0,0,0,373.88,364Z" style="fill: rgb(255, 255, 255); transform-origin: 381.85px 363.435px;" id="el2gdz1ec5bt" class="animable"></path><path d="M332.78,369.91h68.73v14.33H332.76A55.88,55.88,0,0,0,332.78,369.91Z" style="fill: rgb(0, 255, 136); transform-origin: 367.135px 377.075px;" id="elycl9n7xxwlc" class="animable"></path><g id="elxftxvr2l05i"><path d="M332.78,369.91h68.73v14.33H332.76A55.88,55.88,0,0,0,332.78,369.91Z" style="fill: rgb(255, 255, 255); opacity: 0.7; transform-origin: 367.135px 377.075px;" class="animable"></path></g><path d="M390.28,383.71a9.52,9.52,0,0,0,0-13.45L389,369h21.6l.22.23a11,11,0,0,1,0,15.57l-.22.23H389Z" style="fill: rgb(0, 255, 136); transform-origin: 401.524px 377.015px;" id="elgfh82dwdrb" class="animable"></path><path d="M332.08,385h58.34l.06-.07a11.28,11.28,0,0,0,3.38-7.55,10.9,10.9,0,0,0-3.22-8.18l-.22-.23H332.08a.76.76,0,0,0-.76.76h0a.75.75,0,0,0,.76.75h57.71a9.52,9.52,0,0,1,0,13H332.08a.75.75,0,0,0-.76.75h0A.76.76,0,0,0,332.08,385Z" style="fill: rgb(0, 255, 136); transform-origin: 362.594px 376.985px;" id="elt55c8jex27" class="animable"></path><g id="elwryc1bki7ip"><g style="opacity: 0.3; transform-origin: 362.594px 376.985px;" class="animable"><path d="M332.08,385h58.34l.06-.07a11.28,11.28,0,0,0,3.38-7.55,10.9,10.9,0,0,0-3.22-8.18l-.22-.23H332.08a.76.76,0,0,0-.76.76h0a.75.75,0,0,0,.76.75h57.71a9.52,9.52,0,0,1,0,13H332.08a.75.75,0,0,0-.76.75h0A.76.76,0,0,0,332.08,385Z" style="fill: rgb(255, 255, 255); transform-origin: 362.594px 376.985px;" id="elda9fs7b934a" class="animable"></path></g></g><path d="M387.4,378.9h-3.3a.57.57,0,0,0-.57.56h0a.57.57,0,0,0,.57.57h3.3a.56.56,0,0,0,.56-.57h0A.56.56,0,0,0,387.4,378.9Z" style="fill: rgb(255, 255, 255); transform-origin: 385.745px 379.465px;" id="elnsusww9too" class="animable"></path><path d="M379.76,378.9H349.12a.56.56,0,0,0-.57.56h0a.56.56,0,0,0,.57.57h30.64a.57.57,0,0,0,.57-.57h0A.57.57,0,0,0,379.76,378.9Z" style="fill: rgb(255, 255, 255); transform-origin: 364.44px 379.465px;" id="eladmxwlejckr" class="animable"></path><path d="M345,378.9h-6.79a.57.57,0,0,0-.57.56h0a.57.57,0,0,0,.57.57H345a.56.56,0,0,0,.56-.57h0A.56.56,0,0,0,345,378.9Z" style="fill: rgb(255, 255, 255); transform-origin: 341.6px 379.465px;" id="eltrey5oupfyo" class="animable"></path><path d="M387.4,374.12h-29a.56.56,0,0,0-.57.57h0a.56.56,0,0,0,.57.56h29a.56.56,0,0,0,.56-.56h0A.56.56,0,0,0,387.4,374.12Z" style="fill: rgb(255, 255, 255); transform-origin: 372.895px 374.685px;" id="ell4sha276vvs" class="animable"></path><path d="M354.11,374.12H338.18a.57.57,0,0,0-.57.57h0a.57.57,0,0,0,.57.56h15.93a.56.56,0,0,0,.57-.56h0A.56.56,0,0,0,354.11,374.12Z" style="fill: rgb(255, 255, 255); transform-origin: 346.145px 374.685px;" id="elbmueusthztq" class="animable"></path></g><g id="freepik--Character--inject-46" class="animable animator-active" style="transform-origin: 249.975px 280.478px;"><path d="M255.18,289.14l14.07,7.1c4.73,2.35,9.47,4.68,14.21,6.9s9.48,4.33,14.16,6.28c2.35,1,4.68,1.86,7,2.67s4.52,1.53,6.55,2c1,.26,1.95.45,2.74.57.4.06,0,0-.2.06a.88.88,0,0,0-.29.07c-.07,0,0,0,0,.05a1.49,1.49,0,0,0,.25,0,11.73,11.73,0,0,0,2.09-.64,28.36,28.36,0,0,0,2.8-1.31c2-1,4-2.31,6.13-3.64s4.19-2.79,6.28-4.31c8.41-6,16.79-12.82,25.14-19.4l9.27,8.57c-3.26,4.67-6.68,9-10.3,13.27s-7.41,8.41-11.47,12.45A104.55,104.55,0,0,1,330,331.39a50.09,50.09,0,0,1-4.28,2.69,31.85,31.85,0,0,1-5.43,2.44c-.51.19-1.14.36-1.71.52s-1.25.3-2,.41a19.23,19.23,0,0,1-2.31.25c-.84,0-2,0-2.24,0-1.91-.11-3.65-.32-5.31-.58a84.53,84.53,0,0,1-9.2-2q-4.33-1.23-8.43-2.62c-5.49-1.85-10.74-4-15.93-6.14s-10.25-4.52-15.25-7c-2.5-1.22-5-2.45-7.46-3.75s-4.87-2.59-7.43-4Z" style="fill: rgb(228, 137, 123); transform-origin: 304.2px 311.62px;" id="elznvmbqti91h" class="animable"></path><g id="elks0fu6etha"><polygon points="378.75 258.5 381.32 257.45 381.68 256.7 378.75 258.5" style="opacity: 0.2; transform-origin: 380.215px 257.6px;" class="animable"></polygon></g><path d="M384.74,255.68l-8.26,4.54-7.3,4.1,14.33,11.86s4-7,4.61-9.83C388.41,264.93,384.74,255.68,384.74,255.68Z" style="fill: rgb(228, 137, 123); transform-origin: 378.658px 265.93px;" id="elvk1bad4xm8l" class="animable"></path><path d="M367.32,263a58,58,0,0,1,3.31-5.93c.7-.69,11.69-.36,11.69-.36L380.54,258l-4.44,4-4.48,4.05Z" style="fill: rgb(228, 137, 123); transform-origin: 374.82px 261.341px;" id="eli7rbbw6d2ag" class="animable"></path><path d="M355.9,286.15,367.32,263l16.56,11.78S380,293.39,365,294.18Z" style="fill: rgb(228, 137, 123); transform-origin: 369.89px 278.59px;" id="elbpfa1pv9bmq" class="animable"></path><g id="el6kmkvqlt9ma"><rect x="338.62" y="266.44" width="55.05" height="2.7" style="fill: rgb(38, 50, 56); transform-origin: 366.145px 267.79px; transform: rotate(-31.4568deg);" class="animable"></rect></g><polygon points="390.33 254.57 394.96 250.15 388.92 252.27 390.33 254.57" style="fill: rgb(38, 50, 56); transform-origin: 391.94px 252.36px;" id="el9mmxc14ev5m" class="animable"></polygon><g id="el7dwud5c7lxi"><polygon points="390.33 254.57 393.54 251.51 394.96 250.15 388.92 252.27 390.33 254.57" style="fill: rgb(255, 255, 255); opacity: 0.3; transform-origin: 391.94px 252.36px;" class="animable"></polygon></g><polygon points="393.63 251.43 394.55 250.54 394.96 250.15 393.22 250.76 393.63 251.43" style="fill: rgb(38, 50, 56); transform-origin: 394.09px 250.79px;" id="el8m6p9o67we" class="animable"></polygon><g id="el40jkwf59yoc"><polygon points="365.54 266.58 363.31 271.11 361.89 271.98 363.87 267.61 365.54 266.58" style="opacity: 0.2; transform-origin: 363.715px 269.28px;" class="animable"></polygon></g><g id="elp69atgfzkg"><polygon points="373.68 261.6 372.73 265.37 371.62 266.05 366.22 267.84 366.88 265.76 373.68 261.6" style="opacity: 0.2; transform-origin: 369.95px 264.72px;" class="animable"></polygon></g><g id="elttz2r70koho"><path d="M371.62,266.05l-4.86,1.72-3.61,5,4,11.65c4.81-4.13,4.62-7.74,1.75-11.07l-1.7-2c2.63-1.08,5.09-2.24,6.25-4l5.52-5.19c4-1.78,6.3-3.39,6.63-4.26l-.06-.33-6.9,4.22Z" style="opacity: 0.2; transform-origin: 374.375px 270.995px;" class="animable"></path></g><path d="M355.9,286.15s-.78-7.52.35-11,7.12-8.55,8.12-9.66,7.7-2.17,7.7-2.17c-.34,1.57-1,2.87-2.53,3.36l-2.78,1.13-3.61,5s6,3.59,6.08,6.41-7.07,12.53-7.07,12.53Z" style="fill: rgb(228, 137, 123); transform-origin: 363.854px 277.535px;" id="eles2b575mc8j" class="animable"></path><path d="M204.63,285.35c3.64,33.8,58.48,44.42,58.48,44.42l11.28-35.43s-17.95-14-36.3-25.34C218.87,257.12,202.71,267.55,204.63,285.35Z" style="fill: rgb(0, 255, 136); transform-origin: 239.432px 296.849px;" id="elmn44hxnvjz" class="animable"></path><g id="elrr9993ywqyf"><path d="M257.81,328.51c-6.74-6.13-11.41-15.18-14.62-26.27l-3.76,19.92A130.9,130.9,0,0,0,257.81,328.51Z" style="opacity: 0.2; transform-origin: 248.62px 315.375px;" class="animable"></path></g><path d="M235.43,266.84s20.47,52.76.67,150.89l-93.38-.23c-.61-14.33,5.88-81.43-7.78-149,0,0,3.83-4.68,34-6.67,11.91-.79,29.2-.88,39.69.1A174.63,174.63,0,0,1,235.43,266.84Z" style="fill: rgb(0, 255, 136); transform-origin: 189.835px 339.473px;" id="el9mz37i6tjdu" class="animable"></path><g id="ellt73rl55snl"><path d="M244.52,348.6c-.12,3.57-.3,7.24-.55,11-.2,3.07-.43,6.22-.71,9.44q-.52,5.76-1.25,11.84c-.38,3.31-.82,6.68-1.3,10.12q-.89,6.23-2,12.74-1.15,6.81-2.6,14l-93.38-.22c-.13-3.12.07-8.74.33-16.31.11-3,.22-6.38.32-10,.08-2.63.15-5.43.2-8.34.07-3.24.13-6.65.15-10.22q0-4.15,0-8.58c0-3.41-.06-6.93-.13-10.54,0-2.68-.13-5.4-.22-8.17-.32-9.85-.92-20.28-1.89-31.07a428.56,428.56,0,0,0-6.55-45.78s3.83-4.68,34-6.67c11.92-.79,29.2-.89,39.69.1a176,176,0,0,1,26.84,4.91S246.38,295.05,244.52,348.6Z" style="fill: rgb(250, 250, 250); opacity: 0.6; transform-origin: 189.837px 339.481px;" class="animable"></path></g><g id="elqmx05ikk8zf"><path d="M153.12,310s-.83,22.28-9.74,35.37c-.32-9.85-.92-20.28-1.89-31.07C145.13,311.51,149.1,309.86,153.12,310Z" style="opacity: 0.2; transform-origin: 147.305px 327.681px;" class="animable"></path></g><path d="M167.69,220.64c3.69,12.49,8.36,35.55.26,44.87,12.67,4,21.78,6.7,33,15,2.94-8.15,6.53-18.72,6.53-18.72-14.5-2.06-15.12-12.61-13.57-22.72Z" style="fill: rgb(228, 137, 123); transform-origin: 187.585px 250.575px;" id="eldpxw9ivkyvr" class="animable"></path><g id="elam5y51mvqp"><path d="M178.38,228.17l15.5,10.91a41.22,41.22,0,0,0-.56,7.12c-5.49-.27-13.49-5.52-14.59-11.14A18.87,18.87,0,0,1,178.38,228.17Z" style="opacity: 0.2; transform-origin: 186.047px 237.185px;" class="animable"></path></g><polygon points="157.09 262.78 166.04 254.37 190.01 262.6 200.49 278.71 204.41 262.38 209.82 257.49 219.31 263.3 217.85 273.65 210.98 270.29 202.7 283.86 184.16 272.98 179 277.94 157.09 262.78" style="fill: rgb(0, 255, 136); transform-origin: 188.2px 269.115px;" id="el935ohypbm2m" class="animable"></polygon><g id="el7d7yqbf6o2a"><polygon points="202.7 283.86 207.53 266.9 217.85 273.65 210.98 270.29 202.7 283.86" style="opacity: 0.2; transform-origin: 210.275px 275.38px;" class="animable"></polygon></g><g id="elumqifpoc1pc"><polygon points="202.7 283.86 186.36 267.86 179 277.94 184.16 272.98 202.7 283.86" style="opacity: 0.2; transform-origin: 190.85px 275.86px;" class="animable"></polygon></g><path d="M173.65,304.37l10,12.16c3.4,4.05,6.8,8.08,10.25,12s6.95,7.78,10.45,11.45q2.64,2.76,5.31,5.23c1.77,1.65,3.52,3.23,5.18,4.5.82.64,1.61,1.19,2.28,1.62.35.22,0,0-.21,0a.74.74,0,0,0-.29-.06c-.08,0,0,0,0,.05s.1.06.24.08a11.73,11.73,0,0,0,2.17.24,29.81,29.81,0,0,0,3.09-.06c2.23-.15,4.63-.51,7.08-.89s5-.87,7.48-1.42c10.11-2.12,20.82-4,31.11-6.71l4.76,10.61c-4.87,3-9.73,5.54-14.76,8s-10.17,4.73-15.51,6.79a103.9,103.9,0,0,1-17.11,5.13c-1.58.3-3.23.56-5,.74a32.43,32.43,0,0,1-6,.06c-.54,0-1.19-.14-1.78-.22s-1.26-.22-2-.42a19.84,19.84,0,0,1-2.21-.7,21.4,21.4,0,0,1-2-.94,51.59,51.59,0,0,1-4.63-2.66,83,83,0,0,1-7.6-5.56q-3.5-2.86-6.67-5.79c-4.29-3.89-8.26-7.94-12.13-12s-7.57-8.26-11.17-12.51c-1.8-2.12-3.59-4.25-5.32-6.43s-3.43-4.33-5.19-6.67Z" style="fill: rgb(228, 137, 123); transform-origin: 213.01px 339.185px;" id="elj2wbqoin94" class="animable"></path><path d="M128.14,279.39c-10.23,32.42,35.73,64.17,35.73,64.17l24.56-27.93s-10.82-20-23.08-37.77C152.51,259.25,133.53,262.32,128.14,279.39Z" style="fill: rgb(0, 255, 136); transform-origin: 157.542px 304.375px;" id="elpxt1r2bf5ce" class="animable"></path><path d="M266.4,343s4.63-7.17,6.56-8.3,10.23-6.38,10.23-6.38L291.9,334l-1.64,1.75-7-.32-5.1,1.83-1.73,8.33-7.38,8.73Z" style="fill: rgb(228, 137, 123); transform-origin: 279.15px 341.32px;" id="elff6lsi97lsn" class="animable"></path><g id="eluoa1cyqfvaf"><polygon points="286.54 332.12 285.88 331.9 283.48 332.88 284.93 332.98 286.54 332.12" style="opacity: 0.2; transform-origin: 285.01px 332.44px;" class="animable"></polygon></g><path d="M299.14,298.31l2.76-3.9c12.73,4.34,31.67,7.89,32.94,12.26-.88-3.76,9.59-5.1,15.9-7.57l2.1.81-17.42,23.68Z" style="fill: rgb(0, 255, 136); transform-origin: 325.99px 309px;" id="elir3qan08n7b" class="animable"></path><g id="el4hywt0u6vov"><path d="M299.14,298.31l2.76-3.9c12.73,4.34,31.67,7.89,32.94,12.26-.88-3.76,9.59-5.1,15.9-7.57l2.1.81-17.42,23.68Z" style="fill: rgb(255, 255, 255); opacity: 0.6; transform-origin: 325.99px 309px;" class="animable"></path></g><polygon points="296.07 294.28 270.42 361.31 305.76 377.61 312.7 377.1 328.19 366.43 354.13 298.62 338.96 308.49 332.34 308.16 296.07 294.28" style="fill: rgb(38, 50, 56); transform-origin: 312.275px 335.945px;" id="elb6gtnxuifgc" class="animable"></polygon><g id="elpivmj2hhcoh"><polygon points="296.07 294.28 270.42 361.31 305.76 377.61 332.34 308.16 296.07 294.28" style="fill: rgb(255, 255, 255); opacity: 0.3; transform-origin: 301.38px 335.945px;" class="animable"></polygon></g><g id="el0qeztag17oip"><polygon points="338.96 308.49 312.7 377.1 328.19 366.43 354.13 298.62 338.96 308.49" style="fill: rgb(255, 255, 255); opacity: 0.3; transform-origin: 333.415px 337.86px;" class="animable"></polygon></g><g id="elgwpuc4jwou9"><polygon points="305.76 377.61 312.7 377.1 338.96 308.49 332.34 308.16 305.76 377.61" style="fill: rgb(255, 255, 255); opacity: 0.1; transform-origin: 322.36px 342.885px;" class="animable"></polygon></g><path d="M304.66,338.12v0c0-.05,0-.16-.24-.39-1-1-9.48-9.36-10.16-9.36S266.4,343,266.4,343l2.65,11.39c12.24,7.78,25.62-4.92,25.62-4.92h0l3.5-2.85s2.87,1.64,3.73,1.56C302.37,348.1,305.29,339.58,304.66,338.12ZM290,336h0m.3.87,1.08,3.1,2.34,6.75Z" style="fill: rgb(228, 137, 123); transform-origin: 285.574px 342.641px;" id="elfydhe0k347" class="animable"></path><path d="M214,164s10.15,26.23-2,39.86S188.71,167,188.71,167Z" style="fill: rgb(38, 50, 56); transform-origin: 203.341px 185.098px;" id="ellhriy3xq6u" class="animable"></path><g id="elk4qw9hkds9j"><path d="M214,164s10.15,26.23-2,39.86S188.71,167,188.71,167Z" style="fill: rgb(255, 255, 255); opacity: 0; transform-origin: 203.341px 185.098px;" class="animable"></path></g><path d="M175,234.71c9.22,8.5,21.21,8.6,30.41,3.27a28.08,28.08,0,0,0,12.83-16.23,26.55,26.55,0,0,0,.73-2.89c3.41-18.17-.78-47.68-20.73-54.67a27.37,27.37,0,0,0-36.33,29.18C164,213.24,164.36,225,175,234.71Z" style="fill: rgb(228, 137, 123); transform-origin: 190.869px 202.108px;" id="elrc9gown6kn" class="animable"></path><path d="M192.45,197.46c0,1.61,1,2.89,2.07,2.84s1.86-1.43,1.79-3.05-1-2.89-2.07-2.84S192.38,195.81,192.45,197.46Z" style="fill: rgb(38, 50, 56); transform-origin: 194.38px 197.355px;" id="eludnic91rdp" class="animable"></path><path d="M210.83,196.55c0,1.62,1,2.9,2.07,2.84s1.85-1.42,1.78-3-1-2.9-2.07-2.84S210.76,195,210.83,196.55Z" style="fill: rgb(38, 50, 56); transform-origin: 212.755px 196.47px;" id="elw6ouw10e4f" class="animable"></path><path d="M205,197.64a57.78,57.78,0,0,0,8.45,13.52,9.44,9.44,0,0,1-7.74,1.85Z" style="fill: rgb(222, 87, 83); transform-origin: 209.225px 205.42px;" id="el88wcznmz60i" class="animable"></path><path d="M186.46,191.79a1,1,0,0,0,.91-.42,7.68,7.68,0,0,1,5.95-3.5,1,1,0,0,0,0-1.9h0a9.5,9.5,0,0,0-7.56,4.31,1,1,0,0,0,.21,1.33h0A1.33,1.33,0,0,0,186.46,191.79Z" style="fill: rgb(38, 50, 56); transform-origin: 189.802px 188.882px;" id="ell7bgtk1o3qp" class="animable"></path><path d="M218.41,189.83a1,1,0,0,0,.57,0,1,1,0,0,0,.39-1.29h0a9.48,9.48,0,0,0-7.13-5,1,1,0,0,0-1,.88h0a1,1,0,0,0,.87,1h0a7.67,7.67,0,0,1,5.59,4.07A1,1,0,0,0,218.41,189.83Z" style="fill: rgb(38, 50, 56); transform-origin: 215.354px 186.706px;" id="el0c4h9b4djc9v" class="animable"></path><path d="M175.3,167.74l1.92,8.67a6.56,6.56,0,0,0-2.48,8.55c3.54,7.1.47,18.94-4.74,24.06,0,0-.49-3.18-3.11-2.16s-.26,17.58,5.77,25c0,0-8.65-6.41-14.84-23.44-5.73-15.75-7.55-29.16-4.84-35.73Z" style="fill: rgb(38, 50, 56); transform-origin: 164.483px 199.8px;" id="elp1xe7binmoe" class="animable"></path><g id="el7bhdn61qa0b"><path d="M175.3,167.74l1.92,8.67a6.56,6.56,0,0,0-2.48,8.55c3.54,7.1.47,18.94-4.74,24.06,0,0-.49-3.18-3.11-2.16s-.26,17.58,5.77,25c0,0-8.65-6.41-14.84-23.44-5.73-15.75-7.55-29.16-4.84-35.73Z" style="fill: rgb(255, 255, 255); opacity: 0; transform-origin: 164.483px 199.8px;" class="animable"></path></g><path d="M154,210.16a19,19,0,0,0,11.36,9.07c6.41,1.81,9.64-3.93,7.88-10-1.61-5.38-6.87-13-13.33-12.06S151,204.72,154,210.16Z" style="fill: rgb(228, 137, 123); transform-origin: 163.223px 208.33px;" id="el82h4y2nwi5e" class="animable"></path><path d="M177.22,176.41s34.51,5.5,40.18-10.13-17.75-24.7-21.45-22.82,1.1,5.51,1.1,5.51-22.11-5.9-25.79-2.5,4.91,4.37,4.91,4.37-36.25,6-24.39,28.08A36.36,36.36,0,0,1,177.22,176.41Z" style="fill: rgb(38, 50, 56); transform-origin: 183.838px 161.068px;" id="elhgf52h1ubov" class="animable"></path><path d="M205.1,218.64a62.45,62.45,0,0,0-3.41,8.37c-.52-.07-1.05-.15-1.57-.25-7.12-1.17-10-4.07-11.11-6.93a9.24,9.24,0,0,1-.43-4.38,8.94,8.94,0,0,1,.61-2.45c3.41,2.88,10,4.49,13.49,5.2C204.16,218.52,205.1,218.64,205.1,218.64Z" style="fill: rgb(38, 50, 56); transform-origin: 196.793px 220.005px;" id="eloce9u2cq52j" class="animable"></path><path d="M202.68,218.2l-1.07,2.44c-6.7-1.12-11.27-2.81-13-5.19a8.94,8.94,0,0,1,.61-2.45C192.6,215.88,199.15,217.49,202.68,218.2Z" style="fill: rgb(255, 255, 255); transform-origin: 195.645px 216.82px;" id="elxair5rkw27a" class="animable"></path><path d="M200.12,226.76c-7.12-1.17-10-4.07-11.11-6.93a23.24,23.24,0,0,1,7.65,2.88A8.73,8.73,0,0,1,200.12,226.76Z" style="fill: rgb(221, 87, 83); transform-origin: 194.565px 223.295px;" id="el9b6vk73nsww" class="animable"></path><path d="M194.72,207.4a8.44,8.44,0,0,1-2.25.13,8.12,8.12,0,1,1,2.25-.13Zm-3.13-15.57a7.72,7.72,0,0,0-3.48,1.7,7.69,7.69,0,1,0,5.6-1.82A7.5,7.5,0,0,0,191.59,191.83Z" style="fill: rgb(38, 50, 56); transform-origin: 193.131px 199.436px;" id="elrfew7s9u58" class="animable"></path><path d="M215.7,205.85a7.89,7.89,0,0,1-2.23.13,8.18,8.18,0,0,1,1.27-16.32,8.2,8.2,0,0,1,7.53,8.8h0A8.19,8.19,0,0,1,215.7,205.85Zm-3.11-15.57a7.73,7.73,0,1,0,2.12-.12A8.32,8.32,0,0,0,212.59,190.28Zm9.43,8.16Z" style="fill: rgb(38, 50, 56); transform-origin: 214.111px 197.822px;" id="elme1qg3a6rd" class="animable"></path><path d="M206.22,198.26a.26.26,0,0,1-.26-.1,2.15,2.15,0,0,0-1.55-1.06c-1.55-.18-3.25,1.38-3.27,1.39a.25.25,0,0,1-.35,0,.24.24,0,0,1,0-.35c.08-.08,1.89-1.74,3.67-1.52a2.62,2.62,0,0,1,1.91,1.27.26.26,0,0,1-.07.35A.16.16,0,0,1,206.22,198.26Z" style="fill: rgb(38, 50, 56); transform-origin: 203.562px 197.581px;" id="eldvqmqdidveq" class="animable"></path><path d="M185.25,199h-.06l-17.48-.16a.25.25,0,1,1,0-.5l17.48.16a.25.25,0,0,1,.25.25A.27.27,0,0,1,185.25,199Z" style="fill: rgb(38, 50, 56); transform-origin: 176.45px 198.67px;" id="elqhmedyyfcn" class="animable"></path><rect x="80.03" y="401.93" width="338.98" height="15.8" style="fill: rgb(0, 255, 136); transform-origin: 249.52px 409.83px;" id="el6oyu0n3dc3f" class="animable"></rect><g id="elatur19caued"><rect x="80.03" y="401.93" width="338.98" height="15.8" style="fill: rgb(250, 250, 250); opacity: 0.2; transform-origin: 249.52px 409.83px;" class="animable"></rect></g><path d="M424.07,401.93H75.93a4,4,0,0,0-4,3.95h0a4,4,0,0,0,4,3.95H424.07a4,4,0,0,0,3.95-3.95h0A4,4,0,0,0,424.07,401.93Z" style="fill: rgb(0, 255, 136); transform-origin: 249.975px 405.88px;" id="eltukt30vy6js" class="animable"></path><g id="eltpziaccc5qa"><path d="M424.07,401.93H75.93a4,4,0,0,0-4,3.95h0a4,4,0,0,0,4,3.95H424.07a4,4,0,0,0,3.95-3.95h0A4,4,0,0,0,424.07,401.93Z" style="fill: rgb(250, 250, 250); opacity: 0.4; transform-origin: 249.975px 405.88px;" class="animable"></path></g></g><g id="freepik--Sheets--inject-46" class="animable" style="transform-origin: 133.67px 388.04px;"><polygon points="84.32 401.49 84.32 374.01 185.03 374.01 185.03 402.07 84.32 401.49" style="fill: rgb(0, 255, 136); transform-origin: 134.675px 388.04px;" id="el5irxkxufbip" class="animable"></polygon><g id="el5r4axaykw7d"><polygon points="84.32 401.49 84.32 374.01 185.03 374.01 185.03 402.07 84.32 401.49" style="fill: rgb(255, 255, 255); opacity: 0.7; transform-origin: 134.675px 388.04px;" class="animable"></polygon></g><g id="elzmum62ia7y"><rect x="135.34" y="374.01" width="49.69" height="28.06" style="opacity: 0.2; transform-origin: 160.185px 388.04px;" class="animable"></rect></g><polygon points="84.32 377.95 79.86 379.32 128.53 379.32 84.32 377.95" style="fill: rgb(0, 255, 136); transform-origin: 104.195px 378.635px;" id="elj2v82sntsah" class="animable"></polygon><polygon points="84.32 388.04 135.34 389.34 178.5 389.34 136.28 391.68 84.32 388.04" style="fill: rgb(0, 255, 136); transform-origin: 131.41px 389.86px;" id="el6x79ivza4kv" class="animable"></polygon><polygon points="128.53 396.53 84.32 396.53 79.86 397.85 128.53 396.53" style="fill: rgb(0, 255, 136); transform-origin: 104.195px 397.19px;" id="el8a9nhvsnslj" class="animable"></polygon><polygon points="139.96 378.63 185.03 378.16 187.48 379.32 139.96 378.63" style="fill: rgb(0, 255, 136); transform-origin: 163.72px 378.74px;" id="elxu3740b9odi" class="animable"></polygon><polygon points="147.8 395.23 185.03 395.23 187.48 397.85 147.8 395.23" style="fill: rgb(0, 255, 136); transform-origin: 167.64px 396.54px;" id="elz1ggcing90f" class="animable"></polygon><g id="elmmsfc00hvm"><polygon points="84.32 377.95 79.86 379.32 128.53 379.32 84.32 377.95" style="fill: rgb(255, 255, 255); opacity: 0.5; transform-origin: 104.195px 378.635px;" class="animable"></polygon></g><g id="el782k8inoc24"><polygon points="84.32 388.04 135.34 389.34 178.5 389.34 136.28 391.68 84.32 388.04" style="fill: rgb(255, 255, 255); opacity: 0.7; transform-origin: 131.41px 389.86px;" class="animable"></polygon></g><g id="elj96mguknfnp"><polygon points="128.53 396.53 84.32 396.53 79.86 397.85 128.53 396.53" style="fill: rgb(255, 255, 255); opacity: 0.5; transform-origin: 104.195px 397.19px;" class="animable"></polygon></g><g id="elciq0m08m3nn"><polygon points="139.96 378.63 185.03 378.16 187.48 379.32 139.96 378.63" style="fill: rgb(255, 255, 255); opacity: 0.7; transform-origin: 163.72px 378.74px;" class="animable"></polygon></g><g id="eldp8fwuzc8ov"><polyline points="187.48 397.85 147.8 395.23 185.03 395.23" style="fill: rgb(255, 255, 255); opacity: 0.7; transform-origin: 167.64px 396.54px;" class="animable"></polyline></g></g><defs>     <filter id="active" height="200%">         <feMorphology in="SourceAlpha" result="DILATED" operator="dilate" radius="2"></feMorphology>                <feFlood flood-color="#32DFEC" flood-opacity="1" result="PINK"></feFlood>        <feComposite in="PINK" in2="DILATED" operator="in" result="OUTLINE"></feComposite>        <feMerge>            <feMergeNode in="OUTLINE"></feMergeNode>            <feMergeNode in="SourceGraphic"></feMergeNode>        </feMerge>    </filter>    <filter id="hover" height="200%">        <feMorphology in="SourceAlpha" result="DILATED" operator="dilate" radius="2"></feMorphology>                <feFlood flood-color="#ff0000" flood-opacity="0.5" result="PINK"></feFlood>        <feComposite in="PINK" in2="DILATED" operator="in" result="OUTLINE"></feComposite>        <feMerge>            <feMergeNode in="OUTLINE"></feMergeNode>            <feMergeNode in="SourceGraphic"></feMergeNode>        </feMerge>            <feColorMatrix type="matrix" values="0   0   0   0   0                0   1   0   0   0                0   0   0   0   0                0   0   0   1   0 "></feColorMatrix>    </filter></defs></svg>